:FULLY-SPECIFIED
:FORCE-ALL-JOINTS-BE-3DOF
:DEGREES
883
root 3.80538 16.477 30.5181 -8.00847 19.921 -0.435493
lfemur -19.397 15.9263 -17.4488
ltibia 42.0843 -0 0
lfoot -10.2228 -13.3021 -0.628499
ltoes 16.6147 -0 0
rfemur -42.9183 -7.01324 2.57638
rtibia 69.8801 -0 0
rfoot 6.78741 -11.6342 0.163271
rtoes 18.6123 -0 0
lowerback 8.30983 -1.83806 -3.9149
upperback 2.29028 -2.77305 -1.63098
thorax -2.15333 -1.3774 0.771327
lowerneck -6.74568 -5.0154 0.231792
upperneck 6.30341 -7.06938 4.0598
head 3.41603 -3.32382 0.933555
lclavicle 1.66015e-14 -4.42174e-15 4.61381e-31
lhumerus -42.6408 -30.668 94.4231
lradius 58.2157 -0 0
lwrist 17.7676 0 0
lhand 18.8689 10.7277 0.62722
lfingers 7.12502 -0 0
lthumb 43.3342 33.6868 0.202142
rclavicle 1.66015e-14 -4.42174e-15 4.61381e-31
rhumerus -46.3654 6.20844 -74.0735
rradius 83.6527 -0 0
rwrist -4.05592 0 0
rhand 0.420465 -17.0344 1.4448
rfingers 7.12502 -0 0
rthumb 25.9284 -44.6213 1.60345
884
root 3.79645 16.4717 30.5802 -7.66773 20.0138 -0.398538
lfemur -19.7144 16.4063 -17.3898
ltibia 42.4574 -0 0
lfoot -10.492 -12.6618 -0.625491
ltoes 16.2936 -0 0
rfemur -42.133 -7.28686 2.42579
rtibia 70.3282 -0 0
rfoot 6.70439 -12.1725 0.162491
rtoes 19.6161 -0 0
lowerback 8.09194 -1.85786 -3.89188
upperback 2.19961 -2.7907 -1.65873
thorax -2.12867 -1.38592 0.725338
lowerneck -6.76004 -5.09448 0.129562
upperneck 6.21509 -7.16538 4.10474
head 3.39674 -3.37375 0.961149
lclavicle 1.64212e-14 -3.72357e-15 4.59184e-31
lhumerus -43.0076 -31.0712 95.1341
lradius 58.3515 -0 0
lwrist 17.5274 0 0
lhand 19.4306 11.0337 0.62422
lfingers 7.12502 -0 0
lthumb 43.8565 33.7927 0.201176
rclavicle 1.64212e-14 -3.72357e-15 4.59184e-31
rhumerus -46.2542 6.50939 -75.0474
rradius 85.1613 -0 0
rwrist -4.29872 0 0
rhand 1.07906 -16.4306 1.43786
rfingers 7.12502 -0 0
rthumb 26.56 -43.9219 1.59575
885
root 3.78751 16.4664 30.6423 -7.32673 20.1063 -0.360974
lfemur -20.032 16.8866 -17.3334
ltibia 42.8305 -0 0
lfoot -10.7612 -12.0216 -0.619475
ltoes 15.9725 -0 0
rfemur -41.3464 -7.5584 2.27134
rtibia 70.7764 -0 0
rfoot 6.62139 -12.7108 0.160931
rtoes 20.6199 -0 0
lowerback 7.87404 -1.87758 -3.86879
upperback 2.10895 -2.80839 -1.68645
thorax -2.10399 -1.39443 0.679344
lowerneck -6.77426 -5.17359 0.0273405
upperneck 6.12667 -7.26131 4.14985
head 3.37742 -3.42367 0.988761
lclavicle 1.62409e-14 -3.0254e-15 4.54789e-31
lhumerus -43.3819 -31.4704 95.8511
lradius 58.4873 -0 0
lwrist 17.2872 0 0
lhand 19.9923 11.3397 0.618221
lfingers 7.12502 -0 0
lthumb 44.3789 33.8985 0.199245
rclavicle 1.62409e-14 -3.0254e-15 4.54789e-31
rhumerus -46.148 6.81218 -76.0212
rradius 86.6699 -0 0
rwrist -4.54153 0 0
rhand 1.73753 -15.827 1.42398
rfingers 7.12502 -0 0
rthumb 27.1915 -43.2226 1.58033
886
root 3.77858 16.4611 30.7044 -6.98545 20.1986 -0.322802
lfemur -20.3499 17.3672 -17.2797
ltibia 43.2036 -0 0
lfoot -11.0302 -11.3814 -0.610452
ltoes 15.6514 -0 0
rfemur -40.5586 -7.8278 2.11304
rtibia 71.2245 -0 0
rfoot 6.53841 -13.2491 0.158592
rtoes 21.6237 -0 0
lowerback 7.65613 -1.89721 -3.84562
upperback 2.0183 -2.82612 -1.71414
thorax -2.07932 -1.40292 0.633346
lowerneck -6.78834 -5.25272 -0.0748747
upperneck 6.03816 -7.35717 4.19511
head 3.35807 -3.47358 1.01639
lclavicle 1.60606e-14 -2.32723e-15 4.48198e-31
lhumerus -43.7636 -31.8656 96.5743
lradius 58.6231 -0 0
lwrist 17.047 0 0
lhand 20.5539 11.6455 0.609223
lfingers 7.12502 -0 0
lthumb 44.9012 34.0044 0.196349
rclavicle 1.60606e-14 -2.32723e-15 4.48198e-31
rhumerus -46.047 7.11672 -76.9952
rradius 88.1786 -0 0
rwrist -4.78433 0 0
rhand 2.39583 -15.2235 1.40318
rfingers 7.12502 -0 0
rthumb 27.8227 -42.5235 1.55722
887
root 3.76964 16.4558 30.7666 -6.64392 20.2907 -0.284022
lfemur -20.6683 17.8481 -17.2286
ltibia 43.5767 -0 0
lfoot -11.2992 -10.7412 -0.598423
ltoes 15.3304 -0 0
rfemur -39.7695 -8.09503 1.95091
rtibia 71.6726 -0 0
rfoot 6.45545 -13.7874 0.155473
rtoes 22.6275 -0 0
lowerback 7.43822 -1.91675 -3.82237
upperback 1.92766 -2.8439 -1.74181
thorax -2.05463 -1.41138 0.587345
lowerneck -6.80228 -5.33188 -0.177083
upperneck 5.94956 -7.45297 4.24053
head 3.3387 -3.52349 1.04404
lclavicle 1.58803e-14 -1.62906e-15 4.3941e-31
lhumerus -44.1528 -32.2566 97.3037
lradius 58.7589 -0 0
lwrist 16.8068 0 0
lhand 21.1155 11.9513 0.597228
lfingers 7.12502 -0 0
lthumb 45.4236 34.1102 0.192488
rclavicle 1.58803e-14 -1.62906e-15 4.3941e-31
rhumerus -45.9511 7.42291 -77.9692
rradius 89.6872 -0 0
rwrist -5.02713 0 0
rhand 3.05385 -14.6204 1.37544
rfingers 7.12502 -0 0
rthumb 28.4536 -41.8248 1.52641
